<svg id="Layer_1" data-name="Layer 1" xmlns="http://www.w3.org/2000/svg" viewBox="0 0 32 32"><defs><style>.cls-1{fill:#f3ba2f;}.cls-2{fill:#fff;}</style></defs><title>bnb</title><circle class="cls-1" cx="16" cy="16" r="16"/><path class="cls-2" d="M12.12,14.4,16,10.52l3.89,3.89,2.26-2.26L16,6,9.86,12.14ZM6,16l2.26-2.26L10.52,16,8.26,18.26Zm6.12,1.6L16,21.48l3.89-3.89,2.26,2.26L16,26,9.86,19.86h0ZM21.48,16l2.26-2.26L26,16l-2.26,2.26Zm-3.19,0h0L16,18.29,13.71,16h0l.4-.41.19-.19L16,13.71,18.29,16Z" transform="translate(0 0)"/></svg>